<svg xmlns="http://www.w3.org/2000/svg" xml:space="preserve" width="2048" height="2048" style="shape-rendering:geometricPrecision;text-rendering:geometricPrecision;image-rendering:optimizeQuality;fill-rule:evenodd;clip-rule:evenodd"><defs><clipPath id="id0"><path d="M1024-.001c565.541 0 1024 458.46 1024 1024s-458.461 1024-1024 1024c-565.541 0-1024-458.461-1024-1024 0-565.541 458.461-1024 1024-1024z"/></clipPath><style>.fil9{fill:#212121}.fil1{fill:#5e35b1}.fil20{fill:#004d40;fill-rule:nonzero}</style></defs><g id="Layer_x0020_1"><path d="M1024-.001c565.541 0 1024 458.46 1024 1024s-458.461 1024-1024 1024c-565.541 0-1024-458.461-1024-1024 0-565.541 458.461-1024 1024-1024z" style="fill:#7e57c2"/><g style="clip-path:url(#id0)"><g id="_466416376"><path id="_4625734961" class="fil1" d="m1584 464 1135.88 1135.88v224L1584 688z"/><path id="_462573376" class="fil1" d="m1584 688 1135.88 1135.88v224L1584 912.001z"/><path id="_462582808" class="fil1" d="M1584 912.001 2719.88 2047.88v224L1584 1136z"/><path id="_462582880" class="fil1" d="m1584 1136 1135.88 1135.88v224L1584 1360z"/><path id="_462584680" class="fil1" d="m1584 1360 1135.88 1135.88v224L1584 1584z"/><path id="_462585928" class="fil1" d="m1584 1584 1135.88 1135.88h-221.67L1362.33 1584z"/><path id="_462581152" class="fil1" d="m1362.33 1584 1135.88 1135.88h-35L1327.33 1584z"/><path id="_462581944" class="fil1" d="m1327.33 1584 1135.88 1135.88h-794.15l-3.55-.09-3.5-.27-3.45-.44-3.4-.61-3.34-.77-3.28-.94-3.21-1.09-3.13-1.24-3.06-1.39-2.99-1.54-2.89-1.67-2.81-1.8-2.71-1.94-2.62-2.05L489.238 1568.15l2.616 2.06 2.714 1.94 2.808 1.8 2.896 1.67 2.982 1.53 3.061 1.39 3.139 1.25 3.21 1.09 3.276.93 3.339.78 3.398.61 3.453.44 3.5.27 3.546.09z"/><path id="_466416424" class="fil1" d="M533.176 463.999h829.154L1584 464v1120.002H533.177c-38.048 0-69.177-31.129-69.177-69.178V533.178c0-38.05 31.13-69.179 69.177-69.179z"/></g></g><path d="M1024-.001c565.541 0 1024 458.46 1024 1024s-458.461 1024-1024 1024c-565.541 0-1024-458.461-1024-1024 0-565.541 458.461-1024 1024-1024z" style="fill:none"/><path d="M533.176 463.999h794.155v1120H533.176c-38.048 0-69.177-31.13-69.177-69.178V533.175c0-38.05 31.129-69.179 69.177-69.179z" style="fill:#e0e0e0"/><path d="M895.665 1006.6c64.179 0 122.516 26.245 164.799 68.53 42.285 42.285 68.531 100.621 68.531 164.799v41.434c0 14.704-6.006 28.061-15.681 37.735-9.675 9.676-23.033 15.682-37.734 15.682H715.75c-14.703 0-28.06-6.006-37.734-15.682-9.676-9.674-15.682-23.031-15.682-37.735v-41.434c0-64.179 26.247-122.515 68.531-164.799 42.285-42.285 100.621-68.53 164.8-68.53z" style="fill:#424242;fill-rule:nonzero"/><path style="fill:#e6b575" d="M835.179 957.844h120.973v101.506H835.179z"/><path d="M895.665 713.217c34.532 0 66.109 6.523 89.616 24.773 24.04 18.663 38.91 48.63 38.91 94.862 0 44.625-13.961 85.196-36.532 114.711-23.33 30.507-55.838 49.377-91.994 49.377S827 978.07 803.671 947.563c-22.57-29.517-36.533-70.086-36.533-114.71 0-46.235 14.87-76.2 38.91-94.863 23.508-18.25 55.085-24.773 89.617-24.773z" style="fill:#ffc982;fill-rule:nonzero"/><path d="M895.665 713.217c34.532 0 66.109 6.523 89.616 24.774 23.51 18.25 38.247 47.311 38.886 91.822-20.166 14.53-44.27 22.987-70.17 22.987-36.985 0-70.308-17.234-93.727-44.798-22.13 19.965-50.431 31.95-81.273 31.95-3.965 0-7.886-.207-11.76-.594-.064-2.16-.099-4.328-.099-6.506 0-46.233 14.87-76.199 38.91-94.861 23.508-18.25 55.086-24.774 89.617-24.774z" style="fill:#212121;fill-rule:nonzero"/><path style="fill:#3c3c3c" d="m881.676 1048.6 13.989 10.75 13.988-10.75v286.18h-27.977z"/><path class="fil9" d="m834.892 984.62 60.773 74.73-50.7 79.74-29.053-115.24z"/><path class="fil9" d="m956.439 984.62-60.774 74.73 50.7 79.74 29.053-115.24z"/><path style="fill:#f57f17" d="M1327.33 464h256.671v224H1327.33z"/><path style="fill:#0091ea" d="M1327.33 1136h256.671v224H1327.33z"/><path style="fill:#558b2f" d="M1327.33 912h256.671v224H1327.33z"/><path style="fill:#c0ca33" d="M1327.33 687.999h256.671v224H1327.33z"/><path style="fill:#00b0ff" d="M1327.33 1360h256.671v224H1327.33z"/><path style="fill:#b66e1f" d="M1362.33 464h-35v224h35z"/><path style="fill:#037ab9" d="M1362.33 1136h-35v224h35z"/><path style="fill:#417631" d="M1362.33 912h-35v224h35z"/><path style="fill:#90a433" d="M1362.33 688h-35v224h35z"/><path style="fill:#0391c8" d="M1362.33 1360h-35v224h35z"/><path class="fil20" d="M1493.91 611.07h-16.753l-6.655-17.32h-30.474l-6.283 17.32h-16.328l29.692-76.227h16.275l30.526 76.227zm-28.343-30.154-10.506-28.29-10.294 28.29h20.8zM1423.74 758.842h30.474c6.034 0 10.54.248 13.506.764 2.963.496 5.609 1.544 7.95 3.14 2.343 1.598 4.277 3.71 5.84 6.373 1.561 2.643 2.342 5.625 2.342 8.909 0 3.567-.959 6.851-2.875 9.833-1.934 2.98-4.543 5.216-7.827 6.708 4.632 1.349 8.217 3.657 10.702 6.904 2.503 3.265 3.744 7.1 3.744 11.501 0 3.461-.798 6.833-2.413 10.116-1.615 3.265-3.816 5.892-6.602 7.844-2.786 1.953-6.23 3.16-10.329 3.621-2.556.266-8.75.444-18.564.515h-25.948v-76.228zm15.405 12.69v17.624h10.08c6 0 9.727-.088 11.182-.267 2.627-.3 4.703-1.206 6.212-2.715 1.51-1.508 2.254-3.496 2.254-5.962 0-2.361-.639-4.278-1.934-5.751-1.314-1.474-3.248-2.361-5.804-2.663-1.526-.178-5.91-.266-13.152-.266h-8.838zm0 30.314v20.375h14.234c5.556 0 9.07-.143 10.56-.462 2.289-.408 4.153-1.437 5.591-3.035 1.438-1.615 2.165-3.78 2.165-6.478 0-2.29-.568-4.224-1.668-5.82-1.12-1.599-2.715-2.77-4.81-3.497-2.094-.729-6.656-1.083-13.65-1.083h-12.422zM1473.95 1031.05l14.908 4.72c-2.29 8.325-6.088 14.501-11.412 18.548-5.307 4.029-12.068 6.052-20.25 6.052-10.116 0-18.44-3.46-24.954-10.366-6.513-6.92-9.779-16.38-9.779-28.36 0-12.69 3.283-22.54 9.833-29.568 6.548-7.011 15.156-10.526 25.84-10.526 9.318 0 16.897 2.75 22.718 8.271 3.478 3.248 6.07 7.934 7.81 14.04l-15.247 3.638c-.887-3.958-2.768-7.082-5.643-9.372-2.858-2.29-6.337-3.424-10.418-3.424-5.644 0-10.242 2.022-13.756 6.086-3.513 4.048-5.27 10.615-5.27 19.7 0 9.637 1.721 16.507 5.2 20.589 3.46 4.1 7.969 6.14 13.506 6.14 4.1 0 7.614-1.296 10.56-3.905 2.947-2.59 5.058-6.69 6.354-12.263zM1423.72 1206.84h28.13c6.337 0 11.163.48 14.5 1.455 4.474 1.314 8.306 3.657 11.483 7.029 3.194 3.354 5.626 7.472 7.295 12.334 1.65 4.882 2.485 10.88 2.485 18.033 0 6.265-.782 11.678-2.343 16.222-1.9 5.537-4.615 10.027-8.164 13.452-2.662 2.61-6.266 4.633-10.81 6.088-3.39 1.083-7.932 1.616-13.63 1.616h-28.946v-76.229zm15.387 12.904v50.474h11.483c4.296 0 7.4-.23 9.318-.728 2.485-.62 4.561-1.667 6.211-3.158 1.651-1.492 2.983-3.959 4.029-7.366 1.03-3.407 1.563-8.076 1.563-13.968 0-5.891-.533-10.4-1.563-13.56-1.046-3.159-2.502-5.625-4.365-7.382-1.882-1.775-4.26-2.964-7.135-3.585-2.148-.497-6.354-.727-12.637-.727h-6.904zM1426.68 1507.07v-76.23h56.51v12.91h-41.12v16.89h38.26v12.83h-38.26v20.75h42.58v12.85z"/></g></svg>